<?xml version="1.0" encoding="utf-8"?>
<!-- Generator: Adobe Illustrator 24.2.0, SVG Export Plug-In . SVG Version: 6.00 Build 0)  -->
<svg version="1.1" id="Layer_1" xmlns="http://www.w3.org/2000/svg" xmlns:xlink="http://www.w3.org/1999/xlink" x="0px" y="0px"
	 viewBox="0 0 238 217" style="enable-background:new 0 0 238 217;" xml:space="preserve">
<style type="text/css">
	.st0{fill:#99C8CD;}
	.st1{fill:#EDDEE8;}
	.st2{fill:#E7D2E0;}
	.st3{fill:#B0BEDD;}
	.st4{fill:#DABCD1;}
	.st5{fill:none;stroke:#852065;stroke-width:5;stroke-linecap:round;stroke-linejoin:round;stroke-miterlimit:10;}
	.st6{fill:none;stroke:#A4588C;stroke-width:5;stroke-linecap:round;stroke-linejoin:round;stroke-miterlimit:10;}
	.st7{fill:none;stroke:#DABCD1;stroke-width:5;stroke-linecap:round;stroke-linejoin:round;stroke-miterlimit:10;}
	.st8{fill:#852065;}
	.st9{fill:#A4588C;}
	.st10{fill:none;stroke:#3A5DAB;stroke-width:5;stroke-linecap:round;stroke-linejoin:round;stroke-miterlimit:10;}
	.st11{fill:#3A5DAB;}
	.st12{fill:none;stroke:#007482;stroke-width:5;stroke-linecap:round;stroke-linejoin:round;stroke-miterlimit:10;}
	.st13{fill:#99C8CD;stroke:#007482;stroke-width:5;stroke-linecap:round;stroke-linejoin:round;stroke-miterlimit:10;}
	.st14{fill:#007482;}
</style>
<circle class="st3" cx="119.6" cy="172.1" r="13.4"/>
<rect x="86" y="143" class="st3" width="67" height="4"/>
<rect x="71" y="192" class="st3" width="96" height="6"/>
<rect x="66" y="207" class="st3" width="108" height="6"/>
<path class="st3" d="M136,134l-6.7-21.7L109,112l-1.3,7.7c0,0,5.9,2.8,15.3,1.3c0.5,3.4,2.3,10.3,6,14L136,134z"/>
<path class="st3" d="M170.2,6h-3.3c-1.6,26.3-6.9,71.8-26.9,89c-14,12-37.3,8.9-48,8c19.9,11.7,53,9.4,64.9-13.7
	c3.2-6.2,5.7-13,7.6-20.1c4.9-17.7,8.2-48.1,9.3-59.1C174.1,7.9,172.4,6,170.2,6z"/>
<path class="st11" d="M195.9,20.1c-2.7-2.9-6.6-4.6-10.6-4.6h-9.5c0.2-1.9,0.4-3.7,0.5-5.1c0.2-1.7-0.4-3.5-1.6-4.8
	c-1.2-1.3-2.9-2-4.6-2H67.8c-1.8,0-3.4,0.7-4.6,2c-1.2,1.3-1.8,3-1.6,4.8c0.1,1.4,0.3,2.9,0.5,4.7h-9.4c-4,0-7.9,1.7-10.6,4.6
	c-2.7,2.9-4.1,6.9-3.7,10.9c1.8,21.2,9.7,47.4,37,52.3c1.1,2.7,2.2,5.2,3.5,7.6c5.7,11.1,15.3,19,26.7,22.4
	c-0.1,4.6-1.1,13.7-5.2,17.9c-1.4,1.5-3.1,2.2-5.1,2.2h-6.1c-0.9,0-1.8,0.5-2.2,1.4l-5.4,10.8H71c-1.4,0-2.5,1.1-2.5,2.5v47.3h-4.8
	c-1.4,0-2.5,1.1-2.5,2.5V212c0,1.4,1.1,2.5,2.5,2.5h110.6c1.4,0,2.5-1.1,2.5-2.5v-14.6c0-1.4-1.1-2.5-2.5-2.5h-4.8v-47.3
	c0-1.4-1.1-2.5-2.5-2.5h-10.6l-5.4-10.8c-0.4-0.8-1.3-1.4-2.2-1.4h-6.7c-2,0-3.7-0.7-5.1-2.2c-4-4.1-5-13.1-5.1-17.7
	c11.7-3.3,21.5-11.3,27.3-22.6c1.1-2.2,2.2-4.4,3.2-6.9c13.1-2.6,33.9-13,37.3-52.6C200,27,198.6,23,195.9,20.1z M43.4,30.1
	c-0.2-2.6,0.6-5.1,2.4-7.1c1.8-2,4.2-3,6.9-3h10c1.6,14.4,4.5,35.9,8.4,49.8c0.7,2.6,1.5,5,2.3,7.4C55.7,72.7,45.6,56.9,43.4,30.1z
	 M171.8,209.5H66.2v-9.6H71h96h4.8V209.5z M164.5,194.9h-91v-44.8h9.7h71.7h9.7V194.9z M150.8,145.1H87.2l3.6-7.2h56.5L150.8,145.1z
	 M132.3,132.9h-27.1c4.3-5.6,5.2-14.5,5.4-18.9c2.8,0.5,5.6,0.8,8.5,0.8c2.7,0,5.3-0.2,7.9-0.7C127.1,118.6,128,127.4,132.3,132.9z
	 M162.2,68.5c-2.1,7.4-4.6,14-7.4,19.6c-7,13.6-20.4,21.7-35.7,21.7c-15.4,0-28.7-8.1-35.7-21.7c-2.9-5.6-5.4-12.2-7.5-19.6
	c-4-14.2-6.9-36.7-8.4-50.8c0,0,0-0.1,0-0.1c0-0.2,0-0.5-0.1-0.7c-0.3-2.7-0.5-5.1-0.7-7c0-0.5,0.2-0.8,0.3-0.9
	c0.1-0.2,0.4-0.4,0.9-0.4h102.4c0.5,0,0.8,0.3,0.9,0.4c0.1,0.2,0.4,0.5,0.3,0.9C170.2,21.7,167,51.2,162.2,68.5z M194.6,30.6
	c-1.3,15.3-7,40.8-30.2,47.4c0.9-2.6,1.7-5.3,2.5-8c3.8-13.8,6.7-35.1,8.3-49.4h10c2.7,0,5.1,1.1,6.9,3
	C194,25.4,194.9,27.9,194.6,30.6z"/>
<path class="st11" d="M119.6,188c-8.8,0-15.9-7.1-15.9-15.9s7.1-15.9,15.9-15.9c8.7,0,15.9,7.1,15.9,15.9S128.4,188,119.6,188z
	 M119.6,161.2c-6,0-10.9,4.9-10.9,10.9s4.9,10.9,10.9,10.9c6,0,10.9-4.9,10.9-10.9S125.6,161.2,119.6,161.2z"/>
<path class="st3" d="M27.4,89.8c0,0,5-4.2,2.2-10.3c-1.4-4-5.9-9-13-10c-3.2,7.2-1.5,13,1,16.4C21.2,91.4,27.4,89.8,27.4,89.8z"/>
<path class="st3" d="M38.7,105.3c0,0,6.3,1.6,9.7-4.2c2.4-3.5,3.9-10,0.6-16.4c-7.7,1.6-11.4,6.3-12.7,10.3
	C33.8,101.3,38.7,105.3,38.7,105.3z"/>
<path class="st3" d="M37.6,106.6c0,0-1.5-6.3-8.2-6.7c-4.2-0.5-10.7,1.2-14.8,7c4.9,6.1,10.9,7.2,15,6.6
	C36.2,112.9,37.6,106.6,37.6,106.6z"/>
<path class="st3" d="M56,122.1c0,0,6.5,0.2,8.5-6.2c1.6-3.9,1.6-10.6-2.9-16.1c-7.2,3.2-9.8,8.6-10.2,12.8
	C50.3,119.2,56,122.1,56,122.1z"/>
<path class="st3" d="M55.2,123.6c0,0-2.9-5.9-9.4-4.7c-4.2,0.4-10.2,3.5-13,10.1c6.1,4.9,12.2,4.7,16.1,3.2
	C55.2,130,55.2,123.6,55.2,123.6z"/>
<path class="st11" d="M69.2,124.6c-2.2-0.7-4.2-1.5-6.2-2.3c1.6-1.2,3.1-3,3.9-5.5c1.9-4.9,1.7-12.5-3.4-18.6
	c-0.7-0.9-1.9-1.2-2.9-0.7c-9.5,4.2-11.3,11.7-11.7,14.8c-0.1,0.4-0.1,0.9-0.1,1.3c-2.3-1.9-4.3-3.8-6.2-5.7
	c2.7-0.4,5.8-1.9,7.9-5.4c3-4.3,4.3-11.8,0.7-18.9c-0.5-1-1.6-1.5-2.7-1.3c-10.2,2.1-13.6,9-14.6,11.9c-0.2,0.6-0.4,1.2-0.5,1.7
	c-1.5-2.4-2.5-4.4-3.1-5.6c2-2.4,3.9-6.8,1.7-11.8c-1.8-4.9-7.1-10.4-14.9-11.6c-1.1-0.2-2.2,0.4-2.7,1.5
	c-4.3,9.5-0.6,16.3,1.2,18.8c2.7,4.2,6.8,5.3,9.8,5.3c0.1,0,0.2,0,0.3,0c0.5,1.2,1.4,2.9,2.6,4.9c-5.1-0.1-11.6,2.2-15.8,8.1
	c-0.7,0.9-0.6,2.2,0.1,3c5.2,6.4,11.1,7.6,14.8,7.6c1,0,1.8-0.1,2.5-0.2c4.2-0.5,6.9-2.8,8.5-5.2c1.8,1.9,3.8,3.8,6,5.7
	c-5,0.9-11,4.6-13.9,11.4c-0.4,1-0.1,2.2,0.7,2.9c4.6,3.6,8.9,4.7,12.4,4.7c2.7,0,4.9-0.6,6.1-1.1c5.2-1.8,7.3-6.1,7.8-9.2
	c3.1,1.6,6.5,3,10.2,4.1c0.2,0.1,0.5,0.1,0.7,0.1c1.1,0,2.1-0.7,2.4-1.8C71.2,126.4,70.5,125,69.2,124.6z M38.6,96c0,0,0-0.1,0-0.1
	c0.6-1.9,2.7-6.2,8.9-8.2c1.6,4.7,0.6,9.4-1.2,12c0,0.1-0.1,0.1-0.1,0.2c-1.9,3.2-5,3.3-6.3,3.1C39,102,37.2,99.5,38.6,96z
	 M19.7,84.4c0,0,0-0.1-0.1-0.1c-1.2-1.6-3.5-5.8-1.5-12c4.8,1.4,8,4.9,9.1,8c0,0.1,0,0.1,0.1,0.2c1.5,3.4-0.3,6-1.2,7
	C24.8,87.6,21.8,87.6,19.7,84.4z M29.4,111.1c0,0-0.1,0-0.1,0c-2,0.3-6.8,0.5-11.4-4.2c3.4-3.6,8-4.9,11.2-4.5c0.1,0,0.1,0,0.2,0
	c1.2,0.1,2.2,0.4,2.9,0.8c0.8,1.1,1.7,2.3,2.7,3.5C34.4,108.1,33,110.7,29.4,111.1z M53.8,113c0,0,0-0.1,0-0.1c0.2-2,1.3-6.7,7-9.9
	c2.6,4.2,2.6,9,1.4,12c0,0.1,0,0.1-0.1,0.2c-1,3.1-3.4,4-4.9,4.3c-0.7-0.4-1.4-0.8-2.1-1.3C54.3,117.1,53.5,115.4,53.8,113z
	 M48.1,129.7c0,0-0.1,0-0.1,0c-1.9,0.7-6.5,1.9-12-1.6c2.5-4.3,6.8-6.5,10-6.8c0.1,0,0.1,0,0.2,0c3.7-0.6,5.7,1.7,6.5,2.9
	C52.5,125.5,51.7,128.5,48.1,129.7z"/>
<path class="st3" d="M210.6,89.8c0,0-5-4.2-2.2-10.3c1.4-4,5.9-9,13-10c3.2,7.2,1.5,13-1,16.4C216.7,91.4,210.6,89.8,210.6,89.8z"/>
<path class="st11" d="M169.6,129.5c-1.1,0-2.1-0.7-2.4-1.8c-0.4-1.3,0.3-2.7,1.7-3.1c28.2-8.7,39.4-35.4,39.5-35.6
	c0.5-1.3,2-1.9,3.3-1.4c1.3,0.5,1.9,2,1.4,3.3c-0.5,1.2-12.2,29.1-42.7,38.5C170.1,129.5,169.8,129.5,169.6,129.5z"/>
<path class="st11" d="M212.6,92.5c-1,0-1.9-0.1-2.6-0.3c-0.4-0.1-0.7-0.3-1-0.5c-2.2-1.9-5.6-7-2.9-13.1c1.8-4.9,7.1-10.4,14.9-11.6
	c1.1-0.2,2.2,0.4,2.7,1.5c4.3,9.5,0.6,16.3-1.2,18.8C219.7,91.4,215.6,92.5,212.6,92.5z M211.8,87.4c1.3,0.2,4.4,0.2,6.5-3
	c0,0,0-0.1,0.1-0.1c1.2-1.6,3.5-5.8,1.5-12c-4.8,1.4-8,4.9-9.1,8c0,0.1,0,0.1-0.1,0.2C209.1,83.9,210.9,86.4,211.8,87.4z"/>
<path class="st3" d="M199.3,105.3c0,0-6.3,1.6-9.7-4.2c-2.4-3.5-3.9-10-0.6-16.4c7.7,1.6,11.4,6.3,12.7,10.3
	C204.2,101.3,199.3,105.3,199.3,105.3z"/>
<path class="st11" d="M197.4,108c-3.1,0-7.3-1.2-9.9-5.6c-3-4.3-4.3-11.8-0.7-18.9c0.5-1,1.6-1.5,2.7-1.3c10.2,2.1,13.6,9,14.6,11.9
	c2.4,6.2-1.1,11.2-3.2,13c-0.3,0.2-0.6,0.4-1,0.5C199.2,107.9,198.4,108,197.4,108z M199.3,105.3L199.3,105.3L199.3,105.3z
	 M199.3,105.3L199.3,105.3L199.3,105.3z M190.5,87.7c-1.6,4.7-0.6,9.4,1.2,12c0,0.1,0.1,0.1,0.1,0.2c1.9,3.2,5,3.3,6.3,3.1
	c0.9-1,2.7-3.5,1.3-7c0,0,0-0.1,0-0.1C198.7,94,196.7,89.6,190.5,87.7z"/>
<path class="st3" d="M200.4,106.6c0,0,1.5-6.3,8.2-6.7c4.2-0.5,10.7,1.2,14.8,7c-4.9,6.1-10.9,7.2-15,6.6
	C201.7,112.9,200.4,106.6,200.4,106.6z"/>
<path class="st11" d="M210.5,116.2c-1,0-1.8-0.1-2.5-0.2c-6.6-0.7-9.5-6.1-10.1-8.9c-0.1-0.4-0.1-0.7,0-1.1
	c0.7-2.8,3.7-8.2,10.4-8.6c5.2-0.6,12.5,1.6,17.1,8.1c0.7,0.9,0.6,2.2-0.1,3C220.2,115,214.3,116.2,210.5,116.2z M203,106.7
	c0.4,1.3,1.9,4,5.6,4.4c0,0,0.1,0,0.1,0c2,0.3,6.8,0.5,11.4-4.2c-3.4-3.6-8-4.9-11.2-4.5c-0.1,0-0.1,0-0.2,0
	C205,102.7,203.5,105.4,203,106.7z M200.4,106.6L200.4,106.6L200.4,106.6z"/>
<path class="st3" d="M182,122.1c0,0-6.5,0.2-8.5-6.2c-1.6-3.9-1.6-10.6,2.9-16.1c7.2,3.2,9.8,8.6,10.2,12.8
	C187.7,119.2,182,122.1,182,122.1z"/>
<path class="st11" d="M181.9,124.6c-3,0-8.7-1.6-10.8-7.8c-2-4.9-1.7-12.5,3.4-18.6c0.7-0.9,1.9-1.2,2.9-0.7
	c9.5,4.2,11.3,11.7,11.7,14.8c1,6.6-3.5,10.7-6,12c-0.3,0.2-0.7,0.3-1.1,0.3C182,124.6,181.9,124.6,181.9,124.6z M182,122.1
	L182,122.1L182,122.1z M182,122.1L182,122.1L182,122.1z M177.2,103c-2.6,4.2-2.6,9-1.4,12c0,0.1,0,0.1,0.1,0.2
	c1.1,3.6,4.2,4.3,5.5,4.4c1.1-0.8,3.4-2.8,2.8-6.6c0,0,0-0.1,0-0.1C183.9,110.9,182.8,106.2,177.2,103z"/>
<path class="st3" d="M182.8,123.6c0,0,2.9-5.9,9.4-4.7c4.2,0.4,10.2,3.5,13,10.1c-6.1,4.9-12.2,4.7-16.1,3.2
	C182.8,130,182.8,123.6,182.8,123.6z"/>
<path class="st11" d="M194.4,135.6c-2.7,0-4.9-0.6-6.1-1.1c-6.3-2.1-8-8-7.9-10.8c0-0.4,0.1-0.7,0.3-1.1c1.3-2.6,5.4-7.2,12-6.1
	c5.2,0.5,11.9,4.3,15,11.6c0.4,1,0.1,2.2-0.7,2.9C202.2,134.5,197.8,135.6,194.4,135.6z M185.3,124.2c0.2,1.3,1,4.3,4.5,5.5
	c0,0,0.1,0,0.1,0c1.9,0.7,6.5,1.9,12-1.6c-2.5-4.3-6.8-6.5-10-6.8c-0.1,0-0.1,0-0.2,0C188.1,120.7,186.1,123.1,185.3,124.2z"/>
</svg>
