<?xml version="1.0" encoding="utf-8"?>
<!-- Generator: Adobe Illustrator 24.2.0, SVG Export Plug-In . SVG Version: 6.00 Build 0)  -->
<svg version="1.1" id="Layer_1" xmlns="http://www.w3.org/2000/svg" xmlns:xlink="http://www.w3.org/1999/xlink" x="0px" y="0px"
	 viewBox="0 0 238 217" style="enable-background:new 0 0 238 217;" xml:space="preserve">
<style type="text/css">
	.st0{fill:#99C8CD;}
	.st1{fill:#EDDEE8;}
	.st2{fill:#E7D2E0;}
	.st3{fill:#B0BEDD;}
	.st4{fill:#DABCD1;}
	.st5{fill:none;stroke:#852065;stroke-width:5;stroke-linecap:round;stroke-linejoin:round;stroke-miterlimit:10;}
	.st6{fill:none;stroke:#A4588C;stroke-width:5;stroke-linecap:round;stroke-linejoin:round;stroke-miterlimit:10;}
	.st7{fill:none;stroke:#DABCD1;stroke-width:5;stroke-linecap:round;stroke-linejoin:round;stroke-miterlimit:10;}
	.st8{fill:#852065;}
	.st9{fill:#A4588C;}
	.st10{fill:none;stroke:#3A5DAB;stroke-width:5;stroke-linecap:round;stroke-linejoin:round;stroke-miterlimit:10;}
	.st11{fill:#3A5DAB;}
	.st12{fill:none;stroke:#007482;stroke-width:5;stroke-linecap:round;stroke-linejoin:round;stroke-miterlimit:10;}
	.st13{fill:#99C8CD;stroke:#007482;stroke-width:5;stroke-linecap:round;stroke-linejoin:round;stroke-miterlimit:10;}
	.st14{fill:#007482;}
</style>
<g>
	<path class="st0" d="M173.4,100.7c0-29.9-23.9-54.2-53.6-54.9c22.9,6.6,39.6,27.7,39.6,52.7c0,13.8-5.1,26.4-13.5,36.1l0,0
		c0,0-16.6,19.9-16.6,39.3H94.7c0,0.7,0.1,1.4,0.1,2.2h48.4c0-19.4,16.6-39.3,16.6-39.3l0,0C168.2,127.1,173.4,114.5,173.4,100.7z"
		/>
	<path class="st14" d="M143.2,178.5H94.8c-1.4,0-2.5-1.1-2.5-2.5c0-18.2-15.9-37.5-16.1-37.7c0,0,0,0,0-0.1
		c-9.1-10.4-14.1-23.8-14.1-37.6c0-31.3,25.5-57.1,56.8-57.4c31.4,0.3,56.9,26,56.9,57.4c0,13.8-5,27.2-14.1,37.6c0,0,0,0,0,0.1
		c-0.2,0.2-16.1,19.5-16.1,37.7C145.7,177.4,144.6,178.5,143.2,178.5z M97.2,173.5h43.6c1.2-18.7,15.7-36.6,17-38.3
		c0,0,0.1-0.1,0.1-0.1c8.3-9.5,12.9-21.8,12.9-34.4c0-28.6-23.3-52.1-51.9-52.4c-28.6,0.3-51.8,23.8-51.8,52.4
		c0,12.6,4.6,24.9,12.9,34.4c0,0,0.1,0.1,0.1,0.1C81.5,136.9,95.9,154.9,97.2,173.5z"/>
	<path class="st14" d="M74.8,96.2c-0.1,0-0.3,0-0.4,0c-1.4-0.2-2.3-1.5-2-2.9c0.1-0.3,6-33,35.4-38.6c1.4-0.3,2.7,0.6,2.9,2
		c0.3,1.4-0.6,2.7-2,2.9c-25.9,5-31.3,34.3-31.4,34.6C77.1,95.3,76,96.2,74.8,96.2z"/>
	<g>
		<path class="st0" d="M138.7,194.4H99.3c-2.5,0-4.5-2-4.5-4.5v-0.7c0-2.5,2-4.5,4.5-4.5h39.4c2.5,0,4.5,2,4.5,4.5v0.7
			C143.2,192.3,141.2,194.4,138.7,194.4z"/>
		<path class="st14" d="M138.7,196.9H99.3c-3.9,0-7-3.1-7-7v-0.7c0-3.9,3.1-7,7-7h39.4c3.9,0,7,3.1,7,7v0.7
			C145.7,193.7,142.6,196.9,138.7,196.9z M99.3,187.2c-1.1,0-2,0.9-2,2v0.7c0,1.1,0.9,2,2,2h39.4c1.1,0,2-0.9,2-2v-0.7
			c0-1.1-0.9-2-2-2H99.3z"/>
	</g>
	<g>
		<path class="st0" d="M133.3,210.5h-28.7c-2.5,0-4.5-2-4.5-4.5v-0.7c0-2.5,2-4.5,4.5-4.5h28.7c2.5,0,4.5,2,4.5,4.5v0.7
			C137.8,208.5,135.8,210.5,133.3,210.5z"/>
		<path class="st14" d="M133.3,213h-28.7c-3.9,0-7-3.1-7-7v-0.7c0-3.9,3.1-7,7-7h28.7c3.9,0,7,3.1,7,7v0.7
			C140.3,209.9,137.2,213,133.3,213z M104.6,203.3c-1.1,0-2,0.9-2,2v0.7c0,1.1,0.9,2,2,2h28.7c1.1,0,2-0.9,2-2v-0.7c0-1.1-0.9-2-2-2
			H104.6z"/>
	</g>
	<g>
		<path class="st14" d="M119.5,30.2c-1.4,0-2.5-1.1-2.5-2.5V5c0-1.4,1.1-2.5,2.5-2.5S122,3.6,122,5v22.7
			C122,29.1,120.9,30.2,119.5,30.2z"/>
	</g>
	<g>
		<path class="st14" d="M78.7,43.2c-0.9,0-1.7-0.4-2.2-1.3L65.2,22.2c-0.7-1.2-0.3-2.7,0.9-3.4c1.2-0.7,2.7-0.3,3.4,0.9l11.4,19.7
			c0.7,1.2,0.3,2.7-0.9,3.4C79.6,43,79.1,43.2,78.7,43.2z"/>
	</g>
	<g>
		<path class="st14" d="M52.9,74.1c-0.4,0-0.9-0.1-1.2-0.3L32,62.4c-1.2-0.7-1.6-2.2-0.9-3.4c0.7-1.2,2.2-1.6,3.4-0.9l19.7,11.4
			c1.2,0.7,1.6,2.2,0.9,3.4C54.6,73.7,53.8,74.1,52.9,74.1z"/>
	</g>
	<g>
		<path class="st14" d="M160.3,44.2c-0.4,0-0.9-0.1-1.2-0.3c-1.2-0.7-1.6-2.2-0.9-3.4l11.4-19.7c0.7-1.2,2.2-1.6,3.4-0.9
			c1.2,0.7,1.6,2.2,0.9,3.4l-11.4,19.7C162,43.7,161.2,44.2,160.3,44.2z"/>
	</g>
	<g>
		<path class="st14" d="M186.1,75.1c-0.9,0-1.7-0.4-2.2-1.3c-0.7-1.2-0.3-2.7,0.9-3.4l19.7-11.4c1.2-0.7,2.7-0.3,3.4,0.9
			c0.7,1.2,0.3,2.7-0.9,3.4l-19.7,11.4C186.9,75,186.5,75.1,186.1,75.1z"/>
	</g>
</g>
</svg>
