<?xml version="1.0" encoding="utf-8"?>
<!-- Generator: Adobe Illustrator 24.2.0, SVG Export Plug-In . SVG Version: 6.00 Build 0)  -->
<svg version="1.1" id="Layer_1" xmlns="http://www.w3.org/2000/svg" xmlns:xlink="http://www.w3.org/1999/xlink" x="0px" y="0px"
	 viewBox="0 0 238 217" style="enable-background:new 0 0 238 217;" xml:space="preserve">
<style type="text/css">
	.st0{fill:#99C8CD;}
	.st1{fill:#EDDEE8;}
	.st2{fill:#E7D2E0;}
	.st3{fill:#B0BEDD;}
	.st4{fill:#DABCD1;}
	.st5{fill:none;stroke:#852065;stroke-width:5;stroke-linecap:round;stroke-linejoin:round;stroke-miterlimit:10;}
	.st6{fill:none;stroke:#A4588C;stroke-width:5;stroke-linecap:round;stroke-linejoin:round;stroke-miterlimit:10;}
	.st7{fill:none;stroke:#DABCD1;stroke-width:5;stroke-linecap:round;stroke-linejoin:round;stroke-miterlimit:10;}
	.st8{fill:#852065;}
	.st9{fill:#A4588C;}
	.st10{fill:none;stroke:#3A5DAB;stroke-width:5;stroke-linecap:round;stroke-linejoin:round;stroke-miterlimit:10;}
	.st11{fill:#3A5DAB;}
	.st12{fill:none;stroke:#007482;stroke-width:5;stroke-linecap:round;stroke-linejoin:round;stroke-miterlimit:10;}
	.st13{fill:#99C8CD;stroke:#007482;stroke-width:5;stroke-linecap:round;stroke-linejoin:round;stroke-miterlimit:10;}
	.st14{fill:#007482;}
</style>
<g>
	<path class="st1" d="M79.7,131.6c0,40.3-40.9,40.9-40.9,40.9h-0.1c0,0,40.9,0.6,40.9,40.9c0-40.3,40.9-40.9,40.9-40.9h0.1
		C120.6,172.5,79.7,171.9,79.7,131.6z"/>
	<path class="st2" d="M46.1,7.6c0,40.3-40.9,40.9-40.9,40.9H5c0,0,40.9,0.6,40.9,40.9c0-40.3,40.9-40.9,40.9-40.9H87
		C87,48.5,46.1,47.9,46.1,7.6z"/>
	<path class="st4" d="M138,149c0,0,13-41,63-53c0,0,19.5,7,31.5,6c0,0-87,3-87,88C145.5,190,143,159,138,149z"/>
	<path class="st8" d="M145.7,191.6c-1.4,0-2.5-1.1-2.5-2.5c0-34.5-14.2-59.2-42.2-73.4c-21-10.7-42.2-11.1-42.4-11.1
		c-1.4,0-2.5-1.1-2.5-2.5s1.1-2.5,2.5-2.5h0.3c0.2,0,21.5-0.5,42.6-11.2c27.9-14.2,42-38.9,42-73.4c0-1.4,1.1-2.5,2.5-2.5
		s2.5,1.1,2.5,2.5c0,34.5,14.1,59.1,42,73.4c21,10.7,42.4,11.2,42.6,11.2c1.4,0,2.5,1.1,2.5,2.5c0,1.4-1.1,2.5-2.5,2.5h-0.3
		c-0.2,0-21.5,0.5-42.6,11.2c-27.9,14.2-42,38.9-42,73.4C148.2,190.4,147.1,191.6,145.7,191.6z M77.4,102c7.6,1.7,16.7,4.5,25.9,9.1
		c16.6,8.4,35.7,24.4,42.4,54.2c6.7-29.8,25.9-45.8,42.4-54.2c9.3-4.7,18.5-7.5,26.1-9.2c-7.6-1.7-16.7-4.5-25.9-9.1
		c-16.6-8.4-35.7-24.4-42.4-54.2c-6.7,29.8-25.9,45.8-42.4,54.2C94.3,97.5,85,100.4,77.4,102z"/>
	<path class="st9" d="M45.9,91.9c-1.4,0-2.5-1.1-2.5-2.5C43.4,52.1,6.5,51,5,51c-1.4,0-2.5-1.2-2.5-2.5C2.5,47.1,3.6,46,5,46h0.1
		c1.5,0,38.4-1.1,38.4-38.4c0-1.4,1.1-2.5,2.5-2.5s2.5,1.1,2.5,2.5C48.6,44.9,85.5,46,87,46c1.4,0,2.5,1.2,2.5,2.5
		c0,1.4-1.1,2.5-2.5,2.5h-0.1c-1.5,0-38.4,1.1-38.4,38.4C48.4,90.8,47.3,91.9,45.9,91.9z M18.7,48.5c9.8,3.1,22,9.9,27.2,24.9
		c5.2-15.1,17.6-21.8,27.4-24.9c-9.8-3.1-22-9.9-27.2-24.9C40.8,38.7,28.5,45.5,18.7,48.5z"/>
	<path class="st4" d="M79.5,215.9c-1.4,0-2.5-1.1-2.5-2.5c0-37.3-36.9-38.4-38.5-38.4c-1.4,0-2.5-1.2-2.5-2.5c0-1.4,1.1-2.5,2.5-2.5
		h0.1c1.5,0,38.4-1.1,38.4-38.4c0-1.4,1.1-2.5,2.5-2.5s2.5,1.1,2.5,2.5c0,37.3,36.9,38.4,38.5,38.4c1.4,0,2.5,1.2,2.5,2.5
		c0,1.4-1.1,2.5-2.5,2.5h-0.1c-1.5,0-38.4,1.1-38.4,38.4C82,214.8,80.9,215.9,79.5,215.9z M52.3,172.5c9.8,3.1,22,9.9,27.2,24.9
		c5.2-15.1,17.6-21.8,27.4-24.9c-9.8-3.1-22-9.9-27.2-24.9C74.4,162.7,62.1,169.5,52.3,172.5z"/>
</g>
</svg>
